<svg width="69.750000" height="69.750000" version="1.1" xmlns="http://www.w3.org/2000/svg">
<path d="M59.484375 10.265625 C66.328159 17.015659 69.750000 25.218702 69.750000 34.875000 C69.750000 44.531298 66.351596 52.757779 59.554688 59.554688 C52.757779 66.351596 44.531298 69.750000 34.875000 69.750000 C25.218702 69.750000 16.992221 66.351596 10.195312 59.554688 C3.398404 52.757779 0.000000 44.531298 0.000000 34.875000 C0.000000 25.218702 3.398404 16.992221 10.195312 10.195312 C16.992221 3.398404 25.218702 -0.000000 34.875000 -0.000000 C44.531298 -0.000000 52.734341 3.421841 59.484375 10.265625 Z M30.796875 53.296875 L56.671875 27.421875 C57.796881 26.390620 57.796881 25.359380 56.671875 24.328125 L53.578125 21.093750 C52.453119 20.062495 51.375005 20.062495 50.343750 21.093750 L29.250000 42.187500 L19.406250 32.343750 C18.374995 31.312495 17.296881 31.312495 16.171875 32.343750 L13.078125 35.578125 C11.953119 36.609380 11.953119 37.640620 13.078125 38.671875 L27.703125 53.296875 C28.734380 54.421881 29.765620 54.421881 30.796875 53.296875 Z M70.875000 61.875000"/>
</svg>